<svg width="640" height="480" xmlns="http://www.w3.org/2000/svg">
 <!-- Created with SVG-edit - http://svg-edit.googlecode.com/ -->
 <g>
  <title>Layer 1</title>
  <line fill="none" stroke="#1a3f05" stroke-width="5" stroke-dasharray="null" stroke-linejoin="null" stroke-linecap="null" x1="52" y1="127" x2="54" y2="391" id="svg_1"/>
  <line fill="none" stroke="#7f003f" stroke-width="5" stroke-dasharray="null" stroke-linejoin="null" stroke-linecap="null" x1="219" y1="128" x2="221" y2="392" id="svg_2"/>
  <line fill="none" stroke="#7f003f" stroke-width="5" stroke-dasharray="null" stroke-linejoin="null" stroke-linecap="null" x1="406" y1="128" x2="408" y2="392" id="svg_3"/>
  <line fill="none" stroke="#04273d" stroke-width="5" stroke-dasharray="null" stroke-linejoin="null" stroke-linecap="null" x1="561" y1="126" x2="563" y2="390" id="svg_4"/>
  <text fill="#000000" stroke="#7f003f" stroke-width="0" stroke-dasharray="null" stroke-linejoin="null" stroke-linecap="null" x="53" y="102" id="svg_6" font-size="18" font-family="serif" text-anchor="middle" xml:space="preserve">Client logic</text>
  <text fill="#000000" stroke="#7f003f" stroke-width="0" stroke-dasharray="null" stroke-linejoin="null" stroke-linecap="null" x="213" y="100" id="svg_7" font-size="18" font-family="serif" text-anchor="middle" xml:space="preserve">SecurestClient</text>
  <text fill="#000000" stroke="#7f003f" stroke-width="0" stroke-dasharray="null" stroke-linejoin="null" stroke-linecap="null" x="404" y="99" font-size="18" font-family="serif" text-anchor="middle" xml:space="preserve" id="svg_8">SecurestMiddleware</text>
  <text fill="#000000" stroke="#7f003f" stroke-width="0" stroke-dasharray="null" stroke-linejoin="null" stroke-linecap="null" x="558" y="100" id="svg_9" font-size="18" font-family="serif" text-anchor="middle" xml:space="preserve">Server logic</text>
  <path stroke="#000000" transform="rotate(-90.4878 136.54 425.289)" id="svg_5" d="m145.682556,505.509857c-5.049179,0 -9.142914,-0.990997 -9.142914,-2.212708l0,-76.901825c0,-1.222321 -4.093506,-2.213135 -9.142715,-2.213135l0,0c5.04921,0 9.142715,-0.990723 9.142715,-2.213074l0,-76.90152l0,0c0,-1.222382 4.093735,-2.213013 9.142914,-2.213013" stroke-width="2" fill="#ffffff"/>
  <text xml:space="preserve" text-anchor="middle" font-family="serif" font-size="18" id="svg_11" y="462" x="140" stroke-linecap="null" stroke-linejoin="null" stroke-dasharray="null" stroke-width="0" stroke="#000000" fill="#000000">Client Side</text>
  <path stroke="#000000" id="svg_12" transform="rotate(-90.4878 485.667 425.777)" d="m494.809692,502.493988c-5.049225,0 -9.142914,-0.947723 -9.142914,-2.116058l0,-73.542694c0,-1.168915 -4.093506,-2.116455 -9.142731,-2.116455l0,0c5.049225,0 9.142731,-0.947418 9.142731,-2.116333l0,-73.542389l0,0c0,-1.169006 4.093689,-2.116425 9.142914,-2.116425" stroke-width="2" fill="#ffffff"/>
  <text id="svg_13" xml:space="preserve" text-anchor="middle" font-family="serif" font-size="18" y="462.5181" x="485.62312" stroke-linecap="null" stroke-linejoin="null" stroke-dasharray="null" stroke-width="0" stroke="#000000" fill="#000000">Server Side</text>
  <path fill="#ffffff" stroke-width="2" d="m67.675728,179.239517c0.127144,-3.275452 -0.080566,-6.555176 1.040794,-9.824829c27.545311,1.075745 54.765381,2.835388 81.846481,4.418335c1.453262,-1.60614 0.768753,-2.938538 2.032043,-4.423523c17.397659,3.124695 34.639343,6.293945 51.17363,9.614258c-15.863831,3.765869 -34.059082,7.036438 -51.921707,10.385742c-0.579514,-1.559448 -1.157578,-3.119507 -1.735626,-4.678955c-26.327866,1.509079 -54.171074,3.069138 -80.668221,4.448242c-1.802895,-3.182983 -1.748932,-6.64917 -1.76741,-9.93927l0,0l0.000015,0z" id="svg_10" stroke="#000000"/>
  <text fill="#000000" stroke="#000000" stroke-width="0" stroke-dasharray="null" stroke-linejoin="null" stroke-linecap="null" x="125" y="209" id="svg_14" font-size="18" font-family="serif" text-anchor="middle" xml:space="preserve" font-style="italic">Raw request</text>
  <path fill="#ffffff" stroke-width="2" d="m240.953537,178.28476c0.127136,-3.275436 -0.080582,-6.555176 1.040771,-9.824829c27.545334,1.075745 54.765396,2.835388 81.846512,4.418335c1.453247,-1.60614 0.768738,-2.938522 2.032013,-4.423523c17.397675,3.124695 34.639374,6.29393 51.173645,9.614243c-15.863831,3.765869 -34.059082,7.036438 -51.921722,10.385757c-0.579498,-1.559448 -1.157562,-3.119507 -1.735596,-4.678955c-26.327881,1.509109 -54.171082,3.069138 -80.668228,4.448227c-1.802887,-3.182968 -1.748917,-6.64917 -1.767395,-9.93927l0,0l0,0.000015z" stroke="#000000" id="svg_15"/>
  <text fill="#000000" stroke="#000000" stroke-width="0" stroke-dasharray="null" stroke-linejoin="null" stroke-linecap="null" x="300.2778" y="208.04525" font-size="18" font-family="serif" text-anchor="middle" xml:space="preserve" font-style="italic" id="svg_16">Secure request;</text>
  <text fill="#000000" stroke="#000000" stroke-width="0" stroke-dasharray="null" stroke-linejoin="null" stroke-linecap="null" x="310.00436" y="231.00619" font-size="18" font-family="serif" text-anchor="middle" xml:space="preserve" font-style="italic" id="svg_19">headers injected, and</text>
  <text fill="#000000" stroke="#000000" stroke-width="0" stroke-dasharray="null" stroke-linejoin="null" stroke-linecap="null" x="300.00436" y="255.00619" font-size="18" font-family="serif" text-anchor="middle" xml:space="preserve" font-style="italic" id="svg_20">encrytped</text>
  <path fill="#ffffff" stroke-width="2" d="m416.953552,176.830002c0.127136,-3.275436 -0.080627,-6.555176 1.040741,-9.824829c27.545349,1.075745 54.765411,2.835388 81.846527,4.41832c1.453247,-1.606125 0.768738,-2.938507 2.032013,-4.423508c17.397675,3.12468 34.639374,6.29393 51.173676,9.614243c-15.863892,3.765869 -34.059082,7.036438 -51.921753,10.385757c-0.579498,-1.559448 -1.157562,-3.119507 -1.735596,-4.67897c-26.327881,1.509109 -54.171082,3.069153 -80.668243,4.448242c-1.802887,-3.182983 -1.748901,-6.64917 -1.767365,-9.93927l0,0l0,0.000015z" stroke="#000000" id="svg_21"/>
  <text fill="#000000" stroke="#000000" stroke-width="0" stroke-dasharray="null" stroke-linejoin="null" stroke-linecap="null" x="478.00436" y="212.00619" font-size="18" font-family="serif" text-anchor="middle" xml:space="preserve" font-style="italic" id="svg_22">Normal request;</text>
  <text fill="#000000" stroke="#000000" stroke-width="0" stroke-dasharray="null" stroke-linejoin="null" stroke-linecap="null" x="453.99655" y="230.99837" font-size="18" font-family="serif" text-anchor="middle" xml:space="preserve" font-style="italic" id="svg_23">decrypted</text>
  <path fill="#ffffff" stroke-width="2" d="m417.953522,307.080017c0.127136,-3.275452 -0.080627,-6.555176 1.040741,-9.82486c27.545349,1.075775 54.765411,2.835419 81.846527,4.418365c1.453247,-1.60614 0.768738,-2.938538 2.032013,-4.423523c17.397705,3.124695 34.639343,6.293945 51.173706,9.614258c-15.863892,3.765869 -34.059082,7.036438 -51.921783,10.385742c-0.579498,-1.559448 -1.157562,-3.119507 -1.735596,-4.678955c-26.327881,1.509094 -54.171082,3.069153 -80.668243,4.448242c-1.802887,-3.182983 -1.748901,-6.64917 -1.767365,-9.93927l0,0z" stroke="#000000" id="svg_24" transform="rotate(178.896 486 307.25)"/>
  <path fill="#ffffff" stroke-width="2" d="m247.945724,305.799561c0.127136,-3.275421 -0.080582,-6.555176 1.040771,-9.824829c27.545334,1.075775 54.765396,2.835388 81.846512,4.418335c1.453247,-1.60614 0.768738,-2.938507 2.032013,-4.423492c17.397675,3.124695 34.639374,6.293915 51.173645,9.614227c-15.863831,3.765869 -34.059082,7.036438 -51.921722,10.385773c-0.579498,-1.559479 -1.157562,-3.119507 -1.735596,-4.678986c-26.327881,1.509094 -54.171082,3.069153 -80.668228,4.448242c-1.802887,-3.182953 -1.748917,-6.649139 -1.767395,-9.93927l0,0z" stroke="#000000" id="svg_27" transform="rotate(179.996 315.992 305.97)"/>
  <text fill="#000000" stroke="#000000" stroke-width="0" stroke-dasharray="null" stroke-linejoin="null" stroke-linecap="null" x="307.26999" y="335.56006" font-size="18" font-family="serif" text-anchor="middle" xml:space="preserve" font-style="italic" id="svg_28">Secure response;</text>
  <text fill="#000000" stroke="#000000" stroke-width="0" stroke-dasharray="null" stroke-linejoin="null" stroke-linecap="null" x="316.99655" y="358.521" font-size="18" font-family="serif" text-anchor="middle" xml:space="preserve" font-style="italic" id="svg_29">headers injected, and</text>
  <text fill="#000000" stroke="#000000" stroke-width="0" stroke-dasharray="null" stroke-linejoin="null" stroke-linecap="null" x="306.99655" y="382.521" font-size="18" font-family="serif" text-anchor="middle" xml:space="preserve" font-style="italic" id="svg_30">encrytped</text>
  <text id="svg_17" fill="#000000" stroke="#000000" stroke-width="0" stroke-dasharray="null" stroke-linejoin="null" stroke-linecap="null" x="481" y="346" font-size="18" font-family="serif" text-anchor="middle" xml:space="preserve" font-style="italic">Raw response</text>
  <path transform="rotate(178.251 136 311.25)" id="svg_18" fill="#ffffff" stroke-width="2" d="m67.953522,311.080017c0.127136,-3.275452 -0.080627,-6.555176 1.040741,-9.824829c27.545349,1.075745 54.765411,2.835388 81.846527,4.418304c1.453247,-1.60611 0.768738,-2.938507 2.032013,-4.423492c17.397675,3.124664 34.639374,6.293915 51.173676,9.614227c-15.863892,3.765869 -34.059082,7.036438 -51.921753,10.385773c-0.579498,-1.559448 -1.157562,-3.119507 -1.735596,-4.678986c-26.327881,1.509125 -54.171082,3.069153 -80.668243,4.448242c-1.802887,-3.182983 -1.748901,-6.64917 -1.767365,-9.93927l0,0l0,0.000031z" stroke="#000000"/>
  <text style="cursor: move;" id="svg_25" fill="#000000" stroke="#000000" stroke-width="0" stroke-dasharray="null" stroke-linejoin="null" stroke-linecap="null" x="135.004329" y="357.256198" font-size="18" font-family="serif" text-anchor="middle" xml:space="preserve" font-style="italic">Normal response;</text>
  <text id="svg_26" fill="#000000" stroke="#000000" stroke-width="0" stroke-dasharray="null" stroke-linejoin="null" stroke-linecap="null" x="103.996519" y="380.248378" font-size="18" font-family="serif" text-anchor="middle" xml:space="preserve" font-style="italic">decrypted</text>
 </g>
</svg>